<?xml version="1.0" encoding="utf-8"?>
<!-- Generator: Adobe Illustrator 16.0.2, SVG Export Plug-In . SVG Version: 6.00 Build 0)  -->
<!DOCTYPE svg PUBLIC "-//W3C//DTD SVG 1.1//EN" "http://www.w3.org/Graphics/SVG/1.1/DTD/svg11.dtd">
<svg version="1.1" id="Layer_1" xmlns="http://www.w3.org/2000/svg" xmlns:xlink="http://www.w3.org/1999/xlink" x="0px" y="0px"
	 width="20px" height="20px" viewBox="0 0 20 20" enable-background="new 0 0 20 20" xml:space="preserve">
<circle fill="#8CC63E" cx="7" cy="17" r="2"/>
<circle fill="#8CC63E" cx="15" cy="17" r="2"/>
<path fill="#8CC63E" d="M20,4.4V5l-1.8,6.3c-0.101,0.4-0.5,0.7-1,0.7H6.7c-0.4,0-0.8-0.3-1-0.7L3.3,3.9C3.1,3.3,2.6,3,2.1,3H0.4
	C0.2,3,0,2.8,0,2.6V1.4C0,1.2,0.2,1,0.4,1h2.5c1,0,1.8,0.6,2.1,1.6L5.1,3l2.3,6.8c0,0.1,0.2,0.2,0.3,0.2h8.6
	c0.101,0,0.3-0.1,0.3-0.2L17.9,5.4c0-0.2-0.2-0.4-0.4-0.4H9.4C9.2,5,9,4.8,9,4.6V3.4C9,3.2,9.2,3,9.4,3h9.2C19.4,3,20,3.6,20,4.4z"
	/>
</svg>
